<svg width="100" height="100" viewBox="0 0 100 100" fill="none" xmlns="http://www.w3.org/2000/svg">
<path d="M85.9375 10.9375H14.0625C12.334 10.9375 10.9375 12.334 10.9375 14.0625V85.9375C10.9375 87.666 12.334 89.0625 14.0625 89.0625H85.9375C87.666 89.0625 89.0625 87.666 89.0625 85.9375V14.0625C89.0625 12.334 87.666 10.9375 85.9375 10.9375ZM82.8125 82.8125H64.834V58.8086H74.9902L76.5137 47.0215H64.834V39.4922C64.834 36.0742 65.7813 33.75 70.6738 33.75H76.9141V23.2031C75.8301 23.0566 72.1289 22.7344 67.8125 22.7344C58.8086 22.7344 52.6465 28.2324 52.6465 38.3203V47.0117H42.4707V58.7988H52.6563V82.8125H17.1875V17.1875H82.8125V82.8125Z" fill="#CAA2F5"/>
</svg>
