<svg width="350" height="350" viewBox="0 0 350 350" fill="none" xmlns="http://www.w3.org/2000/svg">
<path d="M284.375 21.875H328.125V65.625H284.375V21.875ZM284.375 87.5H328.125V131.25H284.375V87.5ZM218.75 21.875H262.5V65.625H218.75V21.875ZM218.75 87.5H262.5V131.25H218.75V87.5Z" fill="#CAA2F5"/>
<path d="M306.25 175V240.625H43.75V65.625H175V43.75H43.75C37.9484 43.75 32.3844 46.0547 28.282 50.157C24.1797 54.2594 21.875 59.8234 21.875 65.625V240.625C21.875 246.427 24.1797 251.991 28.282 256.093C32.3844 260.195 37.9484 262.5 43.75 262.5H131.25V306.25H87.5V328.125H262.5V306.25H218.75V262.5H306.25C312.052 262.5 317.616 260.195 321.718 256.093C325.82 251.991 328.125 246.427 328.125 240.625V175H306.25ZM196.875 306.25H153.125V262.5H196.875V306.25Z" fill="#CAA2F5"/>
</svg>
