<svg width="100" height="100" viewBox="0 0 100 100" fill="none" xmlns="http://www.w3.org/2000/svg">
<path d="M70.0188 34.4813C72.5041 34.4813 74.5188 32.4665 74.5188 29.9813C74.5188 27.496 72.5041 25.4813 70.0188 25.4813C67.5335 25.4813 65.5188 27.496 65.5188 29.9813C65.5188 32.4665 67.5335 34.4813 70.0188 34.4813Z" fill="#CAA2F5"/>
<path d="M49.9999 30.7438C46.1914 30.7438 42.4684 31.8731 39.3017 33.989C36.135 36.1049 33.6669 39.1124 32.2095 42.631C30.752 46.1496 30.3707 50.0214 31.1137 53.7567C31.8567 57.4921 33.6907 60.9232 36.3837 63.6162C39.0767 66.3093 42.5079 68.1433 46.2432 68.8863C49.9785 69.6293 53.8503 69.2479 57.369 67.7905C60.8876 66.333 63.895 63.8649 66.0109 60.6982C68.1268 57.5315 69.2562 53.8085 69.2562 50C69.2562 44.8929 67.2274 39.995 63.6161 36.3838C60.0049 32.7726 55.107 30.7438 49.9999 30.7438ZM49.9999 62.5C47.5276 62.5 45.1109 61.7669 43.0553 60.3934C40.9997 59.0199 39.3975 57.0676 38.4514 54.7836C37.5053 52.4995 37.2578 49.9862 37.7401 47.5614C38.2224 45.1366 39.4129 42.9093 41.1611 41.1612C42.9092 39.413 45.1365 38.2225 47.5613 37.7402C49.986 37.2579 52.4994 37.5054 54.7834 38.4515C57.0675 39.3976 59.0198 40.9998 60.3933 43.0554C61.7668 45.111 62.4999 47.5278 62.4999 50C62.4999 53.3152 61.1829 56.4946 58.8387 58.8389C56.4945 61.1831 53.3151 62.5 49.9999 62.5Z" fill="#CAA2F5"/>
<path d="M50 19.2563C60.0125 19.2563 61.2 19.2937 65.1531 19.475C67.5308 19.5032 69.8858 19.9398 72.1156 20.7656C73.7333 21.3897 75.2025 22.3455 76.4285 23.5715C77.6545 24.7975 78.6103 26.2667 79.2344 27.8844C80.0602 30.1142 80.4968 32.4692 80.525 34.8469C80.7062 38.8 80.7437 39.9875 80.7437 50.0031C80.7437 60.0187 80.7062 61.2 80.525 65.1531C80.4968 67.5308 80.0602 69.8858 79.2344 72.1156C78.6103 73.7333 77.6545 75.2025 76.4285 76.4285C75.2025 77.6545 73.7333 78.6103 72.1156 79.2344C69.8858 80.0602 67.5308 80.4968 65.1531 80.525C61.2 80.7062 60.0125 80.7437 50 80.7437C39.9875 80.7437 38.8 80.7062 34.8469 80.525C32.4692 80.4968 30.1142 80.0602 27.8844 79.2344C26.2667 78.6103 24.7975 77.6545 23.5715 76.4285C22.3455 75.2025 21.3897 73.7333 20.7656 72.1156C19.9398 69.8858 19.5032 67.5308 19.475 65.1531C19.2937 61.2 19.2563 60.0125 19.2563 50C19.2563 39.9875 19.2937 38.8 19.475 34.8469C19.5032 32.4692 19.9398 30.1142 20.7656 27.8844C21.3897 26.2667 22.3455 24.7975 23.5715 23.5715C24.7975 22.3455 26.2667 21.3897 27.8844 20.7656C30.1142 19.9398 32.4692 19.5032 34.8469 19.475C38.8 19.2937 39.9875 19.2563 50 19.2563V19.2563ZM50 12.5C39.8156 12.5 38.5375 12.5438 34.5375 12.725C31.4274 12.7878 28.3505 13.3774 25.4375 14.4688C22.946 15.4322 20.6833 16.9056 18.7944 18.7944C16.9056 20.6833 15.4322 22.946 14.4688 25.4375C13.3771 28.3515 12.7874 31.4295 12.725 34.5406C12.5438 38.5406 12.5 39.8125 12.5 50C12.5 60.1875 12.5438 61.4625 12.725 65.4625C12.7878 68.5726 13.3774 71.6495 14.4688 74.5625C15.4322 77.054 16.9056 79.3167 18.7944 81.2056C20.6833 83.0944 22.946 84.5678 25.4375 85.5313C28.3515 86.6229 31.4295 87.2126 34.5406 87.275C38.5406 87.4562 39.8156 87.5 50 87.5C60.1844 87.5 61.4625 87.4562 65.4625 87.275C68.5736 87.2126 71.6516 86.6229 74.5656 85.5313C77.0571 84.5678 79.3198 83.0944 81.2087 81.2056C83.0976 79.3167 84.5709 77.054 85.5344 74.5625C86.625 71.6483 87.2136 68.5703 87.275 65.4594C87.4562 61.4594 87.5 60.1875 87.5 50C87.5 39.8125 87.4562 38.5375 87.275 34.5375C87.2122 31.4274 86.6226 28.3505 85.5313 25.4375C84.5678 22.946 83.0944 20.6833 81.2056 18.7944C79.3167 16.9056 77.054 15.4322 74.5625 14.4688C71.6483 13.3781 68.5703 12.7896 65.4594 12.7281C61.4594 12.5406 60.1875 12.5 50 12.5Z" fill="#CAA2F5"/>
</svg>
