<svg width="350" height="350" viewBox="0 0 350 350" fill="none" xmlns="http://www.w3.org/2000/svg">
<path d="M65.625 65.625C65.625 54.0218 70.2344 42.8938 78.4391 34.6891C86.6438 26.4843 97.7718 21.875 109.375 21.875C120.978 21.875 132.106 26.4843 140.311 34.6891C148.516 42.8938 153.125 54.0218 153.125 65.625C153.125 77.2282 148.516 88.3562 140.311 96.5609C132.106 104.766 120.978 109.375 109.375 109.375C97.7718 109.375 86.6438 104.766 78.4391 96.5609C70.2344 88.3562 65.625 77.2282 65.625 65.625V65.625ZM109.375 43.75C103.573 43.75 98.0094 46.0547 93.907 50.157C89.8047 54.2594 87.5 59.8234 87.5 65.625C87.5 71.4266 89.8047 76.9906 93.907 81.0929C98.0094 85.1953 103.573 87.5 109.375 87.5C115.177 87.5 120.741 85.1953 124.843 81.0929C128.945 76.9906 131.25 71.4266 131.25 65.625C131.25 59.8234 128.945 54.2594 124.843 50.157C120.741 46.0547 115.177 43.75 109.375 43.75V43.75ZM213.916 100.275C209.333 96.7792 205.486 92.4123 202.596 87.4251C199.706 82.438 197.83 76.9289 197.075 71.2144C196.321 65.5 196.703 59.6928 198.201 54.1266C199.698 48.5604 202.28 43.3449 205.799 38.7797C209.318 34.2146 213.704 30.3898 218.706 27.5251C223.708 24.6605 229.226 22.8124 234.944 22.0871C240.663 21.3619 246.468 21.7737 252.026 23.299C257.585 24.8243 262.787 27.4329 267.334 30.975C276.288 38.1369 282.072 48.5274 283.442 59.9106C284.812 71.2938 281.659 82.76 274.661 91.8421C267.663 100.924 257.38 106.896 246.023 108.473C234.667 110.05 223.145 107.107 213.937 100.275H213.916ZM240.625 43.75C234.823 43.75 229.259 46.0547 225.157 50.157C221.055 54.2594 218.75 59.8234 218.75 65.625C218.75 71.4266 221.055 76.9906 225.157 81.0929C229.259 85.1953 234.823 87.5 240.625 87.5C246.427 87.5 251.991 85.1953 256.093 81.0929C260.195 76.9906 262.5 71.4266 262.5 65.625C262.5 59.8234 260.195 54.2594 256.093 50.157C251.991 46.0547 246.427 43.75 240.625 43.75V43.75ZM54.6875 131.25H113.094C110.688 138.097 109.375 145.469 109.375 153.125H54.6875C51.7867 153.125 49.0047 154.277 46.9535 156.329C44.9023 158.38 43.75 161.162 43.75 164.062C43.75 181.934 50.8594 195.191 62.0813 204.203C67.2438 208.359 73.4344 211.706 80.4344 214.156C75.2939 219.62 71.3326 226.083 68.7969 233.144C61.4542 230.194 54.5792 226.193 48.3875 221.266C31.9375 208.031 21.875 188.475 21.875 164.062C21.875 155.36 25.332 147.014 31.4856 140.861C37.6391 134.707 45.9851 131.25 54.6875 131.25V131.25ZM137.113 131.25C131.311 141.304 129.741 153.251 132.748 164.463C135.755 175.675 143.093 185.233 153.147 191.034C163.201 196.836 175.148 198.406 186.36 195.399C197.572 192.392 207.13 185.054 212.931 175C218.733 164.946 220.303 152.999 217.296 141.787C214.289 130.575 206.951 121.017 196.897 115.216C186.843 109.414 174.896 107.844 163.684 110.851C152.472 113.858 142.914 121.196 137.113 131.25V131.25ZM170.1 131.797C173.305 131.073 176.632 131.078 179.835 131.812C183.038 132.546 186.035 133.99 188.605 136.037C191.175 138.084 193.252 140.682 194.684 143.64C196.115 146.598 196.864 149.839 196.875 153.125C196.873 157.241 195.71 161.273 193.52 164.757C191.33 168.242 188.201 171.038 184.493 172.824C180.784 174.61 176.648 175.314 172.558 174.854C168.467 174.395 164.59 172.791 161.371 170.226C158.151 167.662 155.721 164.241 154.358 160.357C152.996 156.473 152.757 152.284 153.668 148.27C154.58 144.257 156.606 140.582 159.512 137.668C162.419 134.754 166.089 132.719 170.1 131.797ZM287.919 204.203C282.756 208.359 276.566 211.706 269.566 214.156C274.698 219.622 278.652 226.085 281.181 233.144C288.619 230.103 295.509 226.144 301.613 221.266C318.063 208.031 328.125 188.475 328.125 164.062C328.125 155.36 324.668 147.014 318.514 140.861C312.361 134.707 304.015 131.25 295.312 131.25H236.906C239.312 138.097 240.625 145.469 240.625 153.125H295.312C298.213 153.125 300.995 154.277 303.046 156.329C305.098 158.38 306.25 161.162 306.25 164.062C306.25 181.934 299.141 195.191 287.919 204.203V204.203ZM229.688 218.75C238.39 218.75 246.736 222.207 252.889 228.361C259.043 234.514 262.5 242.86 262.5 251.562C262.5 275.975 252.459 295.531 235.988 308.766C219.778 321.781 198.034 328.125 175 328.125C151.966 328.125 130.222 321.781 114.012 308.766C97.5625 295.531 87.5 275.975 87.5 251.562C87.4885 247.25 88.3293 242.978 89.9742 238.992C91.6191 235.006 94.0356 231.384 97.0848 228.335C100.134 225.286 103.756 222.869 107.742 221.224C111.728 219.579 116 218.738 120.312 218.75H229.688ZM229.688 240.625H120.312C117.412 240.625 114.63 241.777 112.579 243.828C110.527 245.88 109.375 248.662 109.375 251.562C109.375 269.434 116.484 282.691 127.706 291.703C139.212 300.934 155.75 306.25 175 306.25C194.25 306.25 210.787 300.934 222.294 291.703C233.516 282.691 240.625 269.434 240.625 251.562C240.625 248.662 239.473 245.88 237.421 243.828C235.37 241.777 232.588 240.625 229.688 240.625V240.625Z" fill="#CAA2F5"/>
</svg>
